HIERARCHY
ROOT Hips
{
    OFFSET 0.000000 0.000000 0.000000
    CHANNELS 6 Xposition Yposition Zposition Zrotation Xrotation Yrotation
    JOINT Spine
    {
        OFFSET -0.000000 14.517291 0.000000
        CHANNELS 3 Zrotation Xrotation Yrotation
        JOINT Spine1
        {
            OFFSET -0.000000 37.558300 0.000000
            CHANNELS 3 Zrotation Xrotation Yrotation
            JOINT Neck
            {
                OFFSET -0.000000 37.404057 3.400369
                CHANNELS 3 Zrotation Xrotation Yrotation
                JOINT Head
                {
                    OFFSET -0.000000 24.785618 -3.540803
                    CHANNELS 3 Zrotation Xrotation Yrotation
                    End Site
                    {
                        OFFSET -0.000000 35.408028 0.000000
                    }
                }
            }
            JOINT LeftShoulder
            {
                OFFSET 6.992933 33.973492 -0.192664
                CHANNELS 3 Zrotation Xrotation Yrotation
                JOINT LeftArm
                {
                    OFFSET 21.527611 0.000000 0.000000
                    CHANNELS 3 Zrotation Xrotation Yrotation
                    JOINT LeftForeArm
                    {
                        OFFSET 56.353916 0.000000 0.000000
                        CHANNELS 3 Zrotation Xrotation Yrotation
                        JOINT LeftHand
                        {
                            OFFSET 47.774071 0.000000 0.000000
                            CHANNELS 3 Zrotation Xrotation Yrotation
                            End Site
                            {
                                OFFSET 26.556021 0.000000 0.000000
                            }
                        }
                    }
                }
            }
            JOINT RightShoulder
            {
                OFFSET -7.065357 33.973492 -0.192664
                CHANNELS 3 Zrotation Xrotation Yrotation
                JOINT RightArm
                {
                    OFFSET -21.527611 0.000000 0.000000
                    CHANNELS 3 Zrotation Xrotation Yrotation
                    JOINT RightForeArm
                    {
                        OFFSET -56.353916 0.000000 0.000000
                        CHANNELS 3 Zrotation Xrotation Yrotation
                        JOINT RightHand
                        {
                            OFFSET -47.774071 0.000000 0.000000
                            CHANNELS 3 Zrotation Xrotation Yrotation
                            End Site
                            {
                                OFFSET -26.556021 0.000000 0.000000
                            }
                        }
                    }
                }
            }
        }
    }
    JOINT LeftUpLeg
    {
        OFFSET 17.704014 0.000000 0.000000
        CHANNELS 3 Zrotation Xrotation Yrotation
        JOINT LeftLeg
        {
            OFFSET -0.000000 -81.181816 0.000000
            CHANNELS 3 Zrotation Xrotation Yrotation
            JOINT LeftFoot
            {
                OFFSET -0.000000 -62.821102 0.000000
                CHANNELS 3 Zrotation Xrotation Yrotation
                JOINT LeftToeBase
                {
                    OFFSET -0.000000 -11.507608 26.556021
                    CHANNELS 3 Zrotation Xrotation Yrotation
                    End Site
                    {
                        OFFSET -0.000000 0.000000 7.081605
                    }
                }
            }
        }
    }
    JOINT RightUpLeg
    {
        OFFSET -17.704014 0.000000 0.000000
        CHANNELS 3 Zrotation Xrotation Yrotation
        JOINT RightLeg
        {
            OFFSET -0.000000 -81.181816 0.000000
            CHANNELS 3 Zrotation Xrotation Yrotation
            JOINT RightFoot
            {
                OFFSET -0.000000 -62.821102 0.000000
                CHANNELS 3 Zrotation Xrotation Yrotation
                JOINT RightToeBase
                {
                    OFFSET -0.000000 -11.507608 26.556021
                    CHANNELS 3 Zrotation Xrotation Yrotation
                    End Site
                    {
                        OFFSET -0.000000 0.000000 7.081605
                    }
                }
            }
        }
    }
}
MOTION
Frames:    10
Frame Time:    0.008333
-13.525188    151.846344    -96.683525    2.570871    -6.850598    46.504742    -2.900445    -0.573680    -1.339466    -1.354051    1.105731    -0.430528    -1.317848    5.468525    -18.444998    15.400690    2.244027    -17.257967    2.625445    3.570102    -14.419503    -40.968582    -9.601764    -73.948944    11.837604    -61.615379    -113.059616    -26.154057    -46.517578    -33.312443    1.442090    12.933833    -5.997939    36.364620    18.490986    42.284729    -13.137499    -0.750559    33.154346    -26.839178    -3.529593    27.550594    19.380629    -1.545657    -5.105103    -18.916864    40.780117    -20.494848    7.322440    -31.458935    50.482628    0.000000    0.000000    0.000000    -23.686417    -15.559011    -25.122807    11.056080    32.722973    -19.258404    7.559056    5.692042    -7.584536    0.000000    0.000000    0.000000    
-13.513550    151.842636    -96.688850    2.572369    -6.854127    46.493919    -2.890418    -0.580552    -1.345619    -1.361454    1.116685    -0.432407    -1.320593    5.461857    -18.440819    15.402242    2.249615    -17.253771    2.616268    3.578871    -14.417490    -40.955944    -9.559862    -73.951073    11.977411    -61.643890    -112.937851    -26.114542    -46.449535    -33.290867    1.433335    12.935923    -5.992056    36.358994    18.479937    42.294407    -13.131008    -0.736375    33.138550    -26.855331    -3.532108    27.584364    19.374128    -1.542439    -5.094124    -18.909063    40.798332    -20.508284    7.330425    -31.460857    50.492329    0.000000    0.000000    0.000000    -23.688988    -15.547668    -25.125790    11.064643    32.706497    -19.237965    7.541039    5.685581    -7.587461    0.000000    0.000000    0.000000    
-13.508760    151.840179    -96.698959    2.574421    -6.856193    46.478470    -2.883543    -0.567796    -1.341679    -1.372016    1.099798    -0.431293    -1.315206    5.458789    -18.438858    15.411792    2.264022    -17.253033    2.619212    3.591950    -14.429955    -40.923172    -9.512278    -73.937050    12.104064    -61.669655    -112.825790    -26.070459    -46.392540    -33.261696    1.439052    12.942179    -5.993947    36.343533    18.484249    42.297955    -13.123838    -0.768289    33.145721    -26.854223    -3.551375    27.530781    19.369715    -1.538409    -5.116864    -18.943087    40.795845    -20.456636    7.337358    -31.461449    50.500217    0.000000    0.000000    0.000000    -23.688379    -15.550488    -25.124569    11.055333    32.701756    -19.200832    7.541418    5.688547    -7.594647    0.000000    0.000000    0.000000    
-13.499413    151.834686    -96.709953    2.574177    -6.851592    46.457523    -2.881941    -0.578859    -1.340125    -1.372366    1.107476    -0.430494    -1.316425    5.462634    -18.432961    15.421176    2.257636    -17.244783    2.614768    3.592528    -14.441031    -40.867474    -9.451417    -73.901985    12.222069    -61.697079    -112.716187    -26.070644    -46.332874    -33.256386    1.432027    12.930090    -5.980454    36.335335    18.493864    42.289654    -13.133945    -0.774028    33.124569    -26.843872    -3.557361    27.544037    19.358791    -1.539977    -5.111418    -18.954134    40.811062    -20.457914    7.362330    -31.462980    50.523876    0.000000    0.000000    0.000000    -23.690855    -15.558536    -25.115246    11.053686    32.692547    -19.228884    7.534273    5.690228    -7.561928    0.000000    0.000000    0.000000    
-13.492319    151.836044    -96.716072    2.575429    -6.856051    46.436890    -2.869818    -0.577170    -1.338842    -1.381607    1.111309    -0.430080    -1.306893    5.442625    -18.423975    15.407057    2.271787    -17.239624    2.618720    3.587876    -14.453374    -40.806927    -9.385540    -73.851357    12.336223    -61.710415    -112.603600    -26.082790    -46.250725    -33.278603    1.429479    12.926033    -5.975207    36.324158    18.516127    42.298473    -13.156946    -0.790498    33.098244    -26.831690    -3.569690    27.554581    19.351650    -1.528432    -5.105205    -18.952360    40.810192    -20.445194    7.372316    -31.461332    50.537663    0.000000    0.000000    0.000000    -23.681816    -15.553626    -25.096941    11.059977    32.670292    -19.230833    7.518648    5.686869    -7.562486    0.000000    0.000000    0.000000    
-13.484756    151.835602    -96.723686    2.582675    -6.858759    46.419231    -2.868077    -0.566886    -1.336942    -1.387368    1.106036    -0.429566    -1.302582    5.435427    -18.418600    15.418933    2.282329    -17.234344    2.635411    3.593675    -14.467370    -40.668678    -9.283286    -73.784569    12.504468    -61.785919    -112.444641    -26.042212    -46.227863    -33.284355    1.430678    12.919962    -5.964312    36.331253    18.510447    42.282055    -13.152583    -0.802381    33.098927    -26.832184    -3.580325    27.544149    19.339413    -1.514396    -5.095687    -18.936543    40.813881    -20.459370    7.349152    -31.487965    50.541218    0.000000    0.000000    0.000000    -23.679560    -15.547413    -25.096292    11.047536    32.657841    -19.197981    7.528275    5.682530    -7.573452    0.000000    0.000000    0.000000    
-13.476459    151.834534    -96.729568    2.579403    -6.853554    46.393833    -2.871019    -0.579544    -1.331580    -1.378786    1.114383    -0.427579    -1.326225    5.439153    -18.423487    15.460797    2.285744    -17.232668    2.644531    3.601141    -14.473252    -40.563667    -9.191587    -73.723007    12.632908    -61.784733    -112.306816    -25.966776    -46.139709    -33.280800    1.427793    12.929073    -5.971736    36.323193    18.494499    42.304367    -13.139708    -0.804238    33.081249    -26.836567    -3.591462    27.552378    19.329851    -1.508891    -5.086292    -18.940277    40.813065    -20.442089    7.361724    -31.489805    50.549221    0.000000    0.000000    0.000000    -23.673319    -15.555182    -25.074020    11.046081    32.635246    -19.229572    7.508737    5.688123    -7.537884    0.000000    0.000000    0.000000    
-13.468066    151.834061    -96.730942    2.584061    -6.855676    46.369541    -2.867299    -0.583326    -1.328089    -1.383272    1.127418    -0.426245    -1.305936    5.417865    -18.415083    15.436762    2.292830    -17.229410    2.654299    3.603193    -14.469925    -40.422203    -9.092224    -73.639198    12.833455    -61.790226    -112.094940    -25.873041    -46.016026    -33.228073    1.425569    12.929778    -5.974700    36.322620    18.508951    42.319233    -13.175814    -0.808443    33.044376    -26.807386    -3.596418    27.609896    19.322104    -1.494017    -5.077649    -18.939386    40.817497    -20.429350    7.363136    -31.490196    50.552319    0.000000    0.000000    0.000000    -23.666613    -15.552036    -25.065802    11.041892    32.621990    -19.208836    7.502776    5.668662    -7.543479    0.000000    0.000000    0.000000    
-13.465208    151.834442    -96.735977    2.585668    -6.852930    46.350636    -2.875436    -0.581006    -1.324041    -1.370036    1.119797    -0.425106    -1.322462    5.433483    -18.416061    15.474979    2.284124    -17.223280    2.668662    3.608535    -14.481112    -40.212116    -8.935685    -73.528885    13.126080    -61.878708    -111.788193    -25.825350    -45.932251    -33.171837    1.421498    12.936352    -5.971051    36.327156    18.501106    42.314362    -13.168140    -0.823333    33.056461    -26.814783    -3.601900    27.562080    19.311150    -1.493039    -5.072924    -18.936863    40.823483    -20.401863    7.334051    -31.495619    50.524422    0.000000    0.000000    0.000000    -23.660049    -15.553701    -25.051477    11.034069    32.601700    -19.196770    7.482043    5.675173    -7.538881    0.000000    0.000000    0.000000    
-13.460368    151.835968    -96.743011    2.584680    -6.852103    46.332920    -2.869956    -0.590738    -1.319823    -1.372851    1.137128    -0.423363    -1.320677    5.447951    -18.417786    15.498476    2.248817    -17.217892    2.684327    3.619286    -14.486442    -39.993557    -8.791290    -73.415169    13.303751    -61.889305    -111.558182    -25.807373    -45.813847    -33.220219    1.432641    12.929504    -5.972418    36.327518    18.495674    42.313816    -13.190800    -0.815069    33.032108    -26.840294    -3.604948    27.595535    19.306499    -1.489857    -5.088615    -18.956589    40.821972    -20.378897    7.345958    -31.495195    50.546780    0.000000    0.000000    0.000000    -23.655193    -15.556825    -25.042187    11.031781    32.582317    -19.194916    7.470537    5.690535    -7.550620    0.000000    0.000000    0.000000    
